# xmcd
#
# Track frame offsets: 
#        150
#        18216
#        42537
#        57347
#        71942
#        89337
#        112367
#        125407
#        146171
#        167148
#        188822
#        205862
#        223628
#        237202
#        256154
#        274412
#        289879
#        307921
#        325272
#
# Disc length: 4366 seconds
#
# Revision: 0
# Processed by: cddbd v1.5.2PL0 Copyright (c) Steve Scherf et al.
# Submitted via: ExactAudioCopy v0.99pb5
#
DISCID=2e110c13
DTITLE=Various Artist - Ploaia de stele
DYEAR=1900
DGENRE=Manele
TTITLE0=Nicolae Guta - Gigolo
TTITLE1=Nicolae Guta si Denisa - Glasul tau il aud mereu
TTITLE2=Denisa - Cine, cine bate
TTITLE3=Danezu - Cu tine la greu, cu tine la bine
TTITLE4=Nicolae Guta - Baterie, baterie, foc
TTITLE5=Vali Vijelie - Ce vrei tu de la mine
TTITLE6=Danezu - La mine gasesti linistea
TTITLE7=Sorin Copilul de Aur - Pentru ochii tai
TTITLE8=Florin Peste si Mr. Juve - Sunt gelos
TTITLE9=Florin Salam - Am vrut sa fiu doar langa tine
TTITLE10=Denisa - Nu stinge focul din inima mea
TTITLE11=Nicolae Guta - Domnul politai
TTITLE12=Denisa - Ce inima ai avut in piept
TTITLE13=Florin Peste - Ca fratii ne iubim
TTITLE14=Costel Ciofu - Alo, alo
TTITLE15=Liviu - A sunat o baba
TTITLE16=Sorinel Pustiu - De vei plange pentru mine
TTITLE17=Nek, Claudia si De Marco - Baby
TTITLE18=Promo
EXTD=
EXTT0=
EXTT1=
EXTT2=
EXTT3=
EXTT4=
EXTT5=
EXTT6=
EXTT7=
EXTT8=
EXTT9=
EXTT10=
EXTT11=
EXTT12=
EXTT13=
EXTT14=
EXTT15=
EXTT16=
EXTT17=
EXTT18=
PLAYORDER=
